# xmcd
#
# Track frame offsets:
#	150
#	25072
#	46716
#	67411
#	94746
#	121870
#	139779
#	164871
#	178732
#	198769
#	221307
#	247036
#
# Disc length: 3557 seconds
#
# Revision: 1
# Processed by: cddbd v1.5.1PL0 Copyright (c) Steve Scherf et al.
# Submitted via: audiograbber 1.83.01
#
DISCID=ac0de30c
DTITLE=Trevor Loveys - Intastella
DYEAR=1900
DGENRE=
TTITLE0=The Bounce
TTITLE1=Elevate Your Mind
TTITLE2=Dubble
TTITLE3=Planetary Vibes
TTITLE4=Loose Booty
TTITLE5=Dynamite
TTITLE6=Feel the Horns
TTITLE7=Life Goes Wrong
TTITLE8=You and Me
TTITLE9=Down Low
TTITLE10=Agitator
TTITLE11=Rags
EXTD=
EXTT0=
EXTT1=
EXTT2=
EXTT3=
EXTT4=
EXTT5=
EXTT6=
EXTT7=
EXTT8=
EXTT9=
EXTT10=
EXTT11=
PLAYORDER=
